<svg id="visual" viewBox="0 0 1920 1080" width="1920" height="1080" xmlns="http://www.w3.org/2000/svg" xmlns:xlink="http://www.w3.org/1999/xlink" version="1.1"><path d="M0 55L32 58.7C64 62.3 128 69.7 192 73.3C256 77 320 77 384 69.7C448 62.3 512 47.7 576 34.8C640 22 704 11 768 7.5C832 4 896 8 960 10C1024 12 1088 12 1152 15.5C1216 19 1280 26 1344 33.2C1408 40.3 1472 47.7 1536 51.3C1600 55 1664 55 1728 45.8C1792 36.7 1856 18.3 1888 9.2L1920 0L1920 0L1888 0C1856 0 1792 0 1728 0C1664 0 1600 0 1536 0C1472 0 1408 0 1344 0C1280 0 1216 0 1152 0C1088 0 1024 0 960 0C896 0 832 0 768 0C704 0 640 0 576 0C512 0 448 0 384 0C320 0 256 0 192 0C128 0 64 0 32 0L0 0Z" fill="#46c4b3"></path><path d="M0 141L32 144.7C64 148.3 128 155.7 192 152.2C256 148.7 320 134.3 384 120C448 105.7 512 91.3 576 80.5C640 69.7 704 62.3 768 64C832 65.7 896 76.3 960 72.7C1024 69 1088 51 1152 43.8C1216 36.7 1280 40.3 1344 49.3C1408 58.3 1472 72.7 1536 87.2C1600 101.7 1664 116.3 1728 116.3C1792 116.3 1856 101.7 1888 94.3L1920 87L1920 0L1888 8.8C1856 17.7 1792 35.3 1728 44.2C1664 53 1600 53 1536 49.3C1472 45.7 1408 38.3 1344 31.2C1280 24 1216 17 1152 13.5C1088 10 1024 10 960 8.3C896 6.7 832 3.3 768 6.8C704 10.3 640 20.7 576 33.2C512 45.7 448 60.3 384 67.7C320 75 256 75 192 71.3C128 67.7 64 60.3 32 56.7L0 53Z" fill="#3ebfad"></path><path d="M0 152L32 164.7C64 177.3 128 202.7 192 217.2C256 231.7 320 235.3 384 220.8C448 206.3 512 173.7 576 144.8C640 116 704 91 768 91C832 91 896 116 960 112.3C1024 108.7 1088 76.3 1152 67.3C1216 58.3 1280 72.7 1344 99.7C1408 126.7 1472 166.3 1536 191.7C1600 217 1664 228 1728 229.8C1792 231.7 1856 224.3 1888 220.7L1920 217L1920 85L1888 92.3C1856 99.7 1792 114.3 1728 114.3C1664 114.3 1600 99.7 1536 85.2C1472 70.7 1408 56.3 1344 47.3C1280 38.3 1216 34.7 1152 41.8C1088 49 1024 67 960 70.7C896 74.3 832 63.7 768 62C704 60.3 640 67.7 576 78.5C512 89.3 448 103.7 384 118C320 132.3 256 146.7 192 150.2C128 153.7 64 146.3 32 142.7L0 139Z" fill="#35baa8"></path><path d="M0 239L32 249.7C64 260.3 128 281.7 192 281.7C256 281.7 320 260.3 384 233.3C448 206.3 512 173.7 576 144.8C640 116 704 91 768 103.7C832 116.3 896 166.7 960 164.8C1024 163 1088 109 1152 101.8C1216 94.7 1280 134.3 1344 165C1408 195.7 1472 217.3 1536 235.3C1600 253.3 1664 267.7 1728 280.2C1792 292.7 1856 303.3 1888 308.7L1920 314L1920 215L1888 218.7C1856 222.3 1792 229.7 1728 227.8C1664 226 1600 215 1536 189.7C1472 164.3 1408 124.7 1344 97.7C1280 70.7 1216 56.3 1152 65.3C1088 74.3 1024 106.7 960 110.3C896 114 832 89 768 89C704 89 640 114 576 142.8C512 171.7 448 204.3 384 218.8C320 233.3 256 229.7 192 215.2C128 200.7 64 175.3 32 162.7L0 150Z" fill="#2bb5a3"></path><path d="M0 239L32 251.5C64 264 128 289 192 307C256 325 320 336 384 316.2C448 296.3 512 245.7 576 198.8C640 152 704 109 768 116.3C832 123.7 896 181.3 960 183.2C1024 185 1088 131 1152 138.2C1216 145.3 1280 213.7 1344 256.8C1408 300 1472 318 1536 327C1600 336 1664 336 1728 341.3C1792 346.7 1856 357.3 1888 362.7L1920 368L1920 312L1888 306.7C1856 301.3 1792 290.7 1728 278.2C1664 265.7 1600 251.3 1536 233.3C1472 215.3 1408 193.7 1344 163C1280 132.3 1216 92.7 1152 99.8C1088 107 1024 161 960 162.8C896 164.7 832 114.3 768 101.7C704 89 640 114 576 142.8C512 171.7 448 204.3 384 231.3C320 258.3 256 279.7 192 279.7C128 279.7 64 258.3 32 247.7L0 237Z" fill="#20b09d"></path><path d="M0 249L32 259.8C64 270.7 128 292.3 192 333.8C256 375.3 320 436.7 384 438.5C448 440.3 512 382.7 576 344.8C640 307 704 289 768 290.8C832 292.7 896 314.3 960 298.2C1024 282 1088 228 1152 231.5C1216 235 1280 296 1344 335.5C1408 375 1472 393 1536 394.8C1600 396.7 1664 382.3 1728 380.7C1792 379 1856 390 1888 395.5L1920 401L1920 366L1888 360.7C1856 355.3 1792 344.7 1728 339.3C1664 334 1600 334 1536 325C1472 316 1408 298 1344 254.8C1280 211.7 1216 143.3 1152 136.2C1088 129 1024 183 960 181.2C896 179.3 832 121.7 768 114.3C704 107 640 150 576 196.8C512 243.7 448 294.3 384 314.2C320 334 256 323 192 305C128 287 64 262 32 249.5L0 237Z" fill="#10ab98"></path><path d="M0 347L32 350.5C64 354 128 361 192 400.5C256 440 320 512 384 519.2C448 526.3 512 468.7 576 430.8C640 393 704 375 768 378.7C832 382.3 896 407.7 960 397C1024 386.3 1088 339.7 1152 341.5C1216 343.3 1280 393.7 1344 429.7C1408 465.7 1472 487.3 1536 487.3C1600 487.3 1664 465.7 1728 453C1792 440.3 1856 436.7 1888 434.8L1920 433L1920 399L1888 393.5C1856 388 1792 377 1728 378.7C1664 380.3 1600 394.7 1536 392.8C1472 391 1408 373 1344 333.5C1280 294 1216 233 1152 229.5C1088 226 1024 280 960 296.2C896 312.3 832 290.7 768 288.8C704 287 640 305 576 342.8C512 380.7 448 438.3 384 436.5C320 434.7 256 373.3 192 331.8C128 290.3 64 268.7 32 257.8L0 247Z" fill="#03a491"></path><path d="M0 735L32 731.5C64 728 128 721 192 713.8C256 706.7 320 699.3 384 688.5C448 677.7 512 663.3 576 663.3C640 663.3 704 677.7 768 665C832 652.3 896 612.7 960 582.2C1024 551.7 1088 530.3 1152 530.3C1216 530.3 1280 551.7 1344 555.2C1408 558.7 1472 544.3 1536 535.3C1600 526.3 1664 522.7 1728 537.2C1792 551.7 1856 584.3 1888 600.7L1920 617L1920 431L1888 432.8C1856 434.7 1792 438.3 1728 451C1664 463.7 1600 485.3 1536 485.3C1472 485.3 1408 463.7 1344 427.7C1280 391.7 1216 341.3 1152 339.5C1088 337.7 1024 384.3 960 395C896 405.7 832 380.3 768 376.7C704 373 640 391 576 428.8C512 466.7 448 524.3 384 517.2C320 510 256 438 192 398.5C128 359 64 352 32 348.5L0 345Z" fill="#029b8a"></path><path d="M0 843L32 832.3C64 821.7 128 800.3 192 795C256 789.7 320 800.3 384 802C448 803.7 512 796.3 576 783.7C640 771 704 753 768 731.5C832 710 896 685 960 663.5C1024 642 1088 624 1152 615C1216 606 1280 606 1344 606C1408 606 1472 606 1536 606C1600 606 1664 606 1728 616.8C1792 627.7 1856 649.3 1888 660.2L1920 671L1920 615L1888 598.7C1856 582.3 1792 549.7 1728 535.2C1664 520.7 1600 524.3 1536 533.3C1472 542.3 1408 556.7 1344 553.2C1280 549.7 1216 528.3 1152 528.3C1088 528.3 1024 549.7 960 580.2C896 610.7 832 650.3 768 663C704 675.7 640 661.3 576 661.3C512 661.3 448 675.7 384 686.5C320 697.3 256 704.7 192 711.8C128 719 64 726 32 729.5L0 733Z" fill="#029383"></path><path d="M0 973L32 958.7C64 944.3 128 915.7 192 904.8C256 894 320 901 384 926.2C448 951.3 512 994.7 576 974.8C640 955 704 872 768 863C832 854 896 919 960 915.5C1024 912 1088 840 1152 840C1216 840 1280 912 1344 953.3C1408 994.7 1472 1005.3 1536 972.8C1600 940.3 1664 864.7 1728 850.3C1792 836 1856 883 1888 906.5L1920 930L1920 669L1888 658.2C1856 647.3 1792 625.7 1728 614.8C1664 604 1600 604 1536 604C1472 604 1408 604 1344 604C1280 604 1216 604 1152 613C1088 622 1024 640 960 661.5C896 683 832 708 768 729.5C704 751 640 769 576 781.7C512 794.3 448 801.7 384 800C320 798.3 256 787.7 192 793C128 798.3 64 819.7 32 830.3L0 841Z" fill="#018b7b"></path><path d="M0 1038L32 1014.5C64 991 128 944 192 926C256 908 320 919 384 946C448 973 512 1016 576 1014.2C640 1012.3 704 965.7 768 969.3C832 973 896 1027 960 1007.2C1024 987.3 1088 893.7 1152 890C1216 886.3 1280 972.7 1344 1012.3C1408 1052 1472 1045 1536 1016.3C1600 987.7 1664 937.3 1728 928.3C1792 919.3 1856 951.7 1888 967.8L1920 984L1920 928L1888 904.5C1856 881 1792 834 1728 848.3C1664 862.7 1600 938.3 1536 970.8C1472 1003.3 1408 992.7 1344 951.3C1280 910 1216 838 1152 838C1088 838 1024 910 960 913.5C896 917 832 852 768 861C704 870 640 953 576 972.8C512 992.7 448 949.3 384 924.2C320 899 256 892 192 902.8C128 913.7 64 942.3 32 956.7L0 971Z" fill="#018374"></path><path d="M0 1081L32 1081C64 1081 128 1081 192 1081C256 1081 320 1081 384 1081C448 1081 512 1081 576 1081C640 1081 704 1081 768 1081C832 1081 896 1081 960 1081C1024 1081 1088 1081 1152 1081C1216 1081 1280 1081 1344 1081C1408 1081 1472 1081 1536 1081C1600 1081 1664 1081 1728 1081C1792 1081 1856 1081 1888 1081L1920 1081L1920 982L1888 965.8C1856 949.7 1792 917.3 1728 926.3C1664 935.3 1600 985.7 1536 1014.3C1472 1043 1408 1050 1344 1010.3C1280 970.7 1216 884.3 1152 888C1088 891.7 1024 985.3 960 1005.2C896 1025 832 971 768 967.3C704 963.7 640 1010.3 576 1012.2C512 1014 448 971 384 944C320 917 256 906 192 924C128 942 64 989 32 1012.5L0 1036Z" fill="#017b6d"></path></svg>